<svg xmlns="http://www.w3.org/2000/svg" viewBox="0 0 24 24" fill="currentColor">
  <path d="M2.513 12.833l8.654 8.654a9.952 9.952 0 01-8.654-8.654zm-.36-2.924a10.016 10.016 0 011.07-2.86l11.728 11.727a10.013 10.013 0 01-2.86 1.071L2.153 9.909zm2.186-4.455a10.01 10.01 0 012.026-1.95l12.007 12.007a10.013 10.013 0 01-1.95 2.026L4.339 5.454zM8.44 2.233a10.012 10.012 0 012.958-.909l11.278 11.278a10.014 10.014 0 01-.909 2.958L8.44 2.233zm5.197-1.147a10.074 10.074 0 013.236.27l8.771 8.771c.371 1.04.5 2.14.27 3.236L13.637 1.086zm5.473 1.09l7.667 7.667a9.994 9.994 0 00-7.667-7.667z"/>
</svg>
