<svg xmlns="http://www.w3.org/2000/svg" viewBox="0 0 24 24" fill="currentColor">
  <path d="M22.282 9.821a5.985 5.985 0 00-.516-4.91 6.046 6.046 0 00-6.51-2.9A6.065 6.065 0 0011.67.414a6.043 6.043 0 00-5.771 4.178 6.022 6.022 0 00-4.029 2.918 6.046 6.046 0 00.748 7.091 5.98 5.98 0 00.51 4.911 6.04 6.04 0 006.516 2.9A6.065 6.065 0 0013.33 23.586a6.047 6.047 0 005.771-4.178 6.022 6.022 0 004.029-2.918 6.046 6.046 0 00-.748-7.091zM13.33 22.178a4.596 4.596 0 01-2.95-1.07l.147-.082 4.9-2.83a.796.796 0 00.402-.694v-6.91l2.07 1.196a.074.074 0 01.04.058v5.715a4.618 4.618 0 01-4.609 4.617zM3.969 18.13a4.592 4.592 0 01-.55-3.09l.147.088 4.9 2.83a.793.793 0 00.8 0l5.985-3.456v2.39a.074.074 0 01-.03.063L10.27 19.81a4.619 4.619 0 01-6.301-1.68zM2.681 7.877a4.593 4.593 0 012.4-2.02v5.834a.795.795 0 00.4.693l5.984 3.455-2.07 1.196a.074.074 0 01-.07.005L4.377 14.19a4.619 4.619 0 01-1.696-6.313zm16.56 3.858l-5.985-3.455 2.07-1.196a.074.074 0 01.07-.005l4.948 2.857a4.613 4.613 0 01-.713 8.321v-5.828a.796.796 0 00-.39-.694zm2.06-3.105l-.147-.088-4.9-2.83a.793.793 0 00-.8 0L9.47 9.168V6.778a.074.074 0 01.03-.063l4.947-2.852a4.614 4.614 0 016.854 4.767zM8.392 12.84l-2.07-1.194a.074.074 0 01-.04-.059V5.872a4.615 4.615 0 017.564-3.542l-.146.082-4.9 2.83a.796.796 0 00-.402.694l-.006 6.904zm1.124-2.428L12 8.953l2.484 1.435v2.87L12 14.693l-2.484-1.434v-2.847z"/>
</svg>
